<mxfile host="app.diagrams.net" agent="Mozilla/5.0 (X11; Linux x86_64; rv:128.0) Gecko/20100101 Firefox/128.0" version="27.1.5">
  <diagram name="Page-1" id="y72gYe9J5ZY6ktHnv_U3">
    <mxGraphModel dx="2125" dy="1010" grid="1" gridSize="10" guides="1" tooltips="1" connect="1" arrows="1" fold="1" page="1" pageScale="1" pageWidth="827" pageHeight="1169" math="0" shadow="0">
      <root>
        <mxCell id="0" />
        <mxCell id="1" parent="0" />
        <mxCell id="qi6nT5oTFo0Qq21U-sMt-2" value="&amp;nbsp;" style="rounded=1;whiteSpace=wrap;html=1;fillColor=#99FFCC;" parent="1" vertex="1">
          <mxGeometry x="560" y="1310" width="890" height="910" as="geometry" />
        </mxCell>
        <mxCell id="SOBUZzNXme51VfGTYFmo-6" value="" style="rounded=1;whiteSpace=wrap;html=1;fillColor=#CC99FF;" vertex="1" parent="1">
          <mxGeometry x="1120" y="1865" width="320" height="235" as="geometry" />
        </mxCell>
        <mxCell id="SOBUZzNXme51VfGTYFmo-2" value="" style="rounded=1;whiteSpace=wrap;html=1;fillColor=#FF00FF;" vertex="1" parent="1">
          <mxGeometry x="1130" y="1460" width="300" height="215" as="geometry" />
        </mxCell>
        <mxCell id="qi6nT5oTFo0Qq21U-sMt-1" value="&amp;nbsp;" style="rounded=1;whiteSpace=wrap;html=1;fillColor=#D4D4D4;" parent="1" vertex="1">
          <mxGeometry x="1740" y="1400" width="620" height="560" as="geometry" />
        </mxCell>
        <mxCell id="qi6nT5oTFo0Qq21U-sMt-3" value="" style="rounded=1;whiteSpace=wrap;html=1;fillColor=#FF9999;" parent="1" vertex="1">
          <mxGeometry x="610" y="1800" width="368.5" height="370" as="geometry" />
        </mxCell>
        <mxCell id="qi6nT5oTFo0Qq21U-sMt-4" value="" style="rounded=1;whiteSpace=wrap;html=1;fillColor=#FFFF66;" parent="1" vertex="1">
          <mxGeometry x="610" y="1610" width="365" height="145" as="geometry" />
        </mxCell>
        <mxCell id="qi6nT5oTFo0Qq21U-sMt-5" value="" style="rounded=1;whiteSpace=wrap;html=1;fillColor=#CCFF99;" parent="1" vertex="1">
          <mxGeometry x="610" y="1425" width="365" height="145" as="geometry" />
        </mxCell>
        <mxCell id="qi6nT5oTFo0Qq21U-sMt-6" value="" style="shape=mxgraph.cisco.computers_and_peripherals.pc;sketch=0;html=1;pointerEvents=1;dashed=0;fillColor=#036897;strokeColor=#ffffff;strokeWidth=2;verticalLabelPosition=bottom;verticalAlign=top;align=center;outlineConnect=0;" parent="1" vertex="1">
          <mxGeometry x="898.5" y="1480" width="50" height="50" as="geometry" />
        </mxCell>
        <mxCell id="qi6nT5oTFo0Qq21U-sMt-7" value="" style="shape=mxgraph.cisco.computers_and_peripherals.ibm_mini_as400;sketch=0;html=1;pointerEvents=1;dashed=0;fillColor=#036897;strokeColor=#ffffff;strokeWidth=2;verticalLabelPosition=bottom;verticalAlign=top;align=center;outlineConnect=0;" parent="1" vertex="1">
          <mxGeometry x="1793" y="1590" width="43" height="62" as="geometry" />
        </mxCell>
        <mxCell id="qi6nT5oTFo0Qq21U-sMt-8" value="" style="shape=mxgraph.cisco.computers_and_peripherals.ibm_mini_as400;sketch=0;html=1;pointerEvents=1;dashed=0;fillColor=#036897;strokeColor=#ffffff;strokeWidth=2;verticalLabelPosition=bottom;verticalAlign=top;align=center;outlineConnect=0;" parent="1" vertex="1">
          <mxGeometry x="1173.5" y="1888" width="43" height="62" as="geometry" />
        </mxCell>
        <mxCell id="qi6nT5oTFo0Qq21U-sMt-9" value="" style="shape=mxgraph.cisco.computers_and_peripherals.ibm_mini_as400;sketch=0;html=1;pointerEvents=1;dashed=0;fillColor=#036897;strokeColor=#ffffff;strokeWidth=2;verticalLabelPosition=bottom;verticalAlign=top;align=center;outlineConnect=0;" parent="1" vertex="1">
          <mxGeometry x="2174" y="1590" width="43" height="62" as="geometry" />
        </mxCell>
        <mxCell id="qi6nT5oTFo0Qq21U-sMt-10" value="" style="shape=mxgraph.cisco.computers_and_peripherals.ibm_mini_as400;sketch=0;html=1;pointerEvents=1;dashed=0;fillColor=#036897;strokeColor=#ffffff;strokeWidth=2;verticalLabelPosition=bottom;verticalAlign=top;align=center;outlineConnect=0;" parent="1" vertex="1">
          <mxGeometry x="1983" y="1590" width="43" height="62" as="geometry" />
        </mxCell>
        <mxCell id="qi6nT5oTFo0Qq21U-sMt-11" value="" style="shape=mxgraph.cisco.computers_and_peripherals.ibm_mini_as400;sketch=0;html=1;pointerEvents=1;dashed=0;fillColor=#036897;strokeColor=#ffffff;strokeWidth=2;verticalLabelPosition=bottom;verticalAlign=top;align=center;outlineConnect=0;" parent="1" vertex="1">
          <mxGeometry x="1340" y="1888" width="43" height="62" as="geometry" />
        </mxCell>
        <mxCell id="qi6nT5oTFo0Qq21U-sMt-12" value="" style="shape=mxgraph.cisco.computers_and_peripherals.video_camera;sketch=0;html=1;pointerEvents=1;dashed=0;fillColor=#036897;strokeColor=#ffffff;strokeWidth=2;verticalLabelPosition=bottom;verticalAlign=top;align=center;outlineConnect=0;" parent="1" vertex="1">
          <mxGeometry x="897" y="2070" width="43" height="80" as="geometry" />
        </mxCell>
        <mxCell id="qi6nT5oTFo0Qq21U-sMt-13" value="" style="shape=mxgraph.cisco.computers_and_peripherals.video_camera;sketch=0;html=1;pointerEvents=1;dashed=0;fillColor=#036897;strokeColor=#ffffff;strokeWidth=2;verticalLabelPosition=bottom;verticalAlign=top;align=center;outlineConnect=0;" parent="1" vertex="1">
          <mxGeometry x="893.5" y="1970" width="43" height="80" as="geometry" />
        </mxCell>
        <mxCell id="qi6nT5oTFo0Qq21U-sMt-14" value="" style="shape=mxgraph.cisco.modems_and_phones.phone;sketch=0;html=1;pointerEvents=1;dashed=0;fillColor=#036897;strokeColor=#ffffff;strokeWidth=2;verticalLabelPosition=bottom;verticalAlign=top;align=center;outlineConnect=0;" parent="1" vertex="1">
          <mxGeometry x="2049.5" y="1757" width="64" height="46" as="geometry" />
        </mxCell>
        <mxCell id="qi6nT5oTFo0Qq21U-sMt-15" value="" style="shape=mxgraph.cisco.modems_and_phones.phone;sketch=0;html=1;pointerEvents=1;dashed=0;fillColor=#036897;strokeColor=#ffffff;strokeWidth=2;verticalLabelPosition=bottom;verticalAlign=top;align=center;outlineConnect=0;" parent="1" vertex="1">
          <mxGeometry x="1308" y="1540" width="64" height="46" as="geometry" />
        </mxCell>
        <mxCell id="qi6nT5oTFo0Qq21U-sMt-16" value="&lt;div&gt;Routeur &lt;br&gt;&lt;/div&gt;&lt;div&gt;Société 9&lt;br&gt;&lt;/div&gt;" style="shape=mxgraph.cisco.routers.router;sketch=0;html=1;pointerEvents=1;dashed=0;fillColor=#036897;strokeColor=#ffffff;strokeWidth=2;verticalLabelPosition=bottom;verticalAlign=top;align=center;outlineConnect=0;" parent="1" vertex="1">
          <mxGeometry x="1414" y="1760" width="60" height="40" as="geometry" />
        </mxCell>
        <mxCell id="qi6nT5oTFo0Qq21U-sMt-17" value="&amp;nbsp;" style="shape=mxgraph.cisco.routers.router;sketch=0;html=1;pointerEvents=1;dashed=0;fillColor=#036897;strokeColor=#ffffff;strokeWidth=2;verticalLabelPosition=bottom;verticalAlign=top;align=center;outlineConnect=0;" parent="1" vertex="1">
          <mxGeometry x="1921.5" y="1872" width="60" height="40" as="geometry" />
        </mxCell>
        <mxCell id="qi6nT5oTFo0Qq21U-sMt-18" style="edgeStyle=orthogonalEdgeStyle;rounded=0;orthogonalLoop=1;jettySize=auto;html=1;exitX=0.98;exitY=0.5;exitDx=0;exitDy=0;exitPerimeter=0;" parent="1" source="qi6nT5oTFo0Qq21U-sMt-19" target="qi6nT5oTFo0Qq21U-sMt-14" edge="1">
          <mxGeometry relative="1" as="geometry" />
        </mxCell>
        <mxCell id="qi6nT5oTFo0Qq21U-sMt-19" value="" style="shape=mxgraph.cisco.switches.workgroup_switch;sketch=0;html=1;pointerEvents=1;dashed=0;fillColor=#036897;strokeColor=#ffffff;strokeWidth=2;verticalLabelPosition=bottom;verticalAlign=top;align=center;outlineConnect=0;" parent="1" vertex="1">
          <mxGeometry x="1911.5" y="1760" width="80" height="40" as="geometry" />
        </mxCell>
        <mxCell id="qi6nT5oTFo0Qq21U-sMt-20" value="Switch" style="shape=mxgraph.cisco.switches.workgroup_switch;sketch=0;html=1;pointerEvents=1;dashed=0;fillColor=#036897;strokeColor=#ffffff;strokeWidth=2;verticalLabelPosition=bottom;verticalAlign=top;align=center;outlineConnect=0;" parent="1" vertex="1">
          <mxGeometry x="1238.5" y="1760" width="80" height="40" as="geometry" />
        </mxCell>
        <mxCell id="qi6nT5oTFo0Qq21U-sMt-21" value="VLAN 800" style="shape=mxgraph.cisco.switches.workgroup_switch;sketch=0;html=1;pointerEvents=1;dashed=0;fillColor=#036897;strokeColor=#ffffff;strokeWidth=2;verticalLabelPosition=bottom;verticalAlign=top;align=center;outlineConnect=0;" parent="1" vertex="1">
          <mxGeometry x="1596.5" y="1760" width="80" height="40" as="geometry" />
        </mxCell>
        <mxCell id="qi6nT5oTFo0Qq21U-sMt-22" value="&lt;div&gt;PC1&lt;/div&gt;&lt;div&gt;192.168.144.10&lt;/div&gt;/24" style="text;html=1;align=center;verticalAlign=middle;resizable=0;points=[];autosize=1;strokeColor=none;fillColor=none;" parent="1" vertex="1">
          <mxGeometry x="775" y="1475" width="110" height="60" as="geometry" />
        </mxCell>
        <mxCell id="qi6nT5oTFo0Qq21U-sMt-23" value="&lt;div&gt;TELEPHONE 1&lt;/div&gt;&lt;div&gt;20911&lt;/div&gt;&lt;div&gt;192.168.147.10/24&lt;/div&gt;" style="text;html=1;align=center;verticalAlign=middle;resizable=0;points=[];autosize=1;strokeColor=none;fillColor=none;" parent="1" vertex="1">
          <mxGeometry x="1130" y="1592" width="120" height="60" as="geometry" />
        </mxCell>
        <mxCell id="qi6nT5oTFo0Qq21U-sMt-24" value="" style="shape=mxgraph.cisco.computers_and_peripherals.pc;sketch=0;html=1;pointerEvents=1;dashed=0;fillColor=#036897;strokeColor=#ffffff;strokeWidth=2;verticalLabelPosition=bottom;verticalAlign=top;align=center;outlineConnect=0;" parent="1" vertex="1">
          <mxGeometry x="893.5" y="1655" width="50" height="50" as="geometry" />
        </mxCell>
        <mxCell id="qi6nT5oTFo0Qq21U-sMt-25" value="" style="shape=mxgraph.cisco.modems_and_phones.phone;sketch=0;html=1;pointerEvents=1;dashed=0;fillColor=#036897;strokeColor=#ffffff;strokeWidth=2;verticalLabelPosition=bottom;verticalAlign=top;align=center;outlineConnect=0;" parent="1" vertex="1">
          <mxGeometry x="1160" y="1540" width="70" height="46" as="geometry" />
        </mxCell>
        <mxCell id="qi6nT5oTFo0Qq21U-sMt-26" value="&lt;div&gt;PC2&lt;/div&gt;&lt;div&gt;192.168.145.20&lt;/div&gt;/24" style="text;html=1;align=center;verticalAlign=middle;resizable=0;points=[];autosize=1;strokeColor=none;fillColor=none;" parent="1" vertex="1">
          <mxGeometry x="770" y="1655" width="110" height="60" as="geometry" />
        </mxCell>
        <mxCell id="qi6nT5oTFo0Qq21U-sMt-27" value="&lt;div&gt;TELEPHONE 2&lt;/div&gt;&lt;div&gt;20912&lt;/div&gt;&lt;div&gt;192.168.147.20/24&lt;/div&gt;" style="text;html=1;align=center;verticalAlign=middle;resizable=0;points=[];autosize=1;strokeColor=none;fillColor=none;" parent="1" vertex="1">
          <mxGeometry x="1280" y="1592" width="120" height="60" as="geometry" />
        </mxCell>
        <mxCell id="qi6nT5oTFo0Qq21U-sMt-28" value="" style="shape=mxgraph.cisco.computers_and_peripherals.pc;sketch=0;html=1;pointerEvents=1;dashed=0;fillColor=#036897;strokeColor=#ffffff;strokeWidth=2;verticalLabelPosition=bottom;verticalAlign=top;align=center;outlineConnect=0;" parent="1" vertex="1">
          <mxGeometry x="890" y="1820" width="50" height="50" as="geometry" />
        </mxCell>
        <mxCell id="qi6nT5oTFo0Qq21U-sMt-29" value="&lt;div&gt;PC3&lt;/div&gt;&lt;div&gt;192.168.146.30&lt;/div&gt;/24" style="text;html=1;align=center;verticalAlign=middle;resizable=0;points=[];autosize=1;strokeColor=none;fillColor=none;" parent="1" vertex="1">
          <mxGeometry x="780" y="1815" width="110" height="60" as="geometry" />
        </mxCell>
        <mxCell id="qi6nT5oTFo0Qq21U-sMt-30" value="" style="shape=mxgraph.cisco.computers_and_peripherals.pc;sketch=0;html=1;pointerEvents=1;dashed=0;fillColor=#036897;strokeColor=#ffffff;strokeWidth=2;verticalLabelPosition=bottom;verticalAlign=top;align=center;outlineConnect=0;" parent="1" vertex="1">
          <mxGeometry x="890" y="1900" width="50" height="50" as="geometry" />
        </mxCell>
        <mxCell id="qi6nT5oTFo0Qq21U-sMt-31" value="&lt;div&gt;PC4&lt;/div&gt;&lt;div&gt;192.168.146.31&lt;/div&gt;/24" style="text;html=1;align=center;verticalAlign=middle;resizable=0;points=[];autosize=1;strokeColor=none;fillColor=none;" parent="1" vertex="1">
          <mxGeometry x="780" y="1895" width="110" height="60" as="geometry" />
        </mxCell>
        <mxCell id="qi6nT5oTFo0Qq21U-sMt-32" value="&lt;div&gt;CAM1&lt;/div&gt;&lt;div&gt;192.168.146.38/24&lt;/div&gt;" style="text;html=1;align=center;verticalAlign=middle;resizable=0;points=[];autosize=1;strokeColor=none;fillColor=none;" parent="1" vertex="1">
          <mxGeometry x="775" y="1990" width="120" height="40" as="geometry" />
        </mxCell>
        <mxCell id="qi6nT5oTFo0Qq21U-sMt-33" value="&lt;div&gt;CAM2&lt;/div&gt;&lt;div&gt;192.168.146.39/24&lt;/div&gt;" style="text;html=1;align=center;verticalAlign=middle;resizable=0;points=[];autosize=1;strokeColor=none;fillColor=none;" parent="1" vertex="1">
          <mxGeometry x="778.5" y="2090" width="120" height="40" as="geometry" />
        </mxCell>
        <mxCell id="qi6nT5oTFo0Qq21U-sMt-37" style="edgeStyle=orthogonalEdgeStyle;rounded=0;orthogonalLoop=1;jettySize=auto;html=1;exitX=0;exitY=0.5;exitDx=0;exitDy=0;exitPerimeter=0;" parent="1" source="qi6nT5oTFo0Qq21U-sMt-20" target="qi6nT5oTFo0Qq21U-sMt-6" edge="1">
          <mxGeometry relative="1" as="geometry">
            <Array as="points">
              <mxPoint x="1120" y="1780" />
              <mxPoint x="1120" y="1500" />
            </Array>
          </mxGeometry>
        </mxCell>
        <mxCell id="qi6nT5oTFo0Qq21U-sMt-38" style="edgeStyle=orthogonalEdgeStyle;rounded=0;orthogonalLoop=1;jettySize=auto;html=1;exitX=0;exitY=0.5;exitDx=0;exitDy=0;exitPerimeter=0;entryX=0.83;entryY=0.5;entryDx=0;entryDy=0;entryPerimeter=0;" parent="1" source="qi6nT5oTFo0Qq21U-sMt-20" target="qi6nT5oTFo0Qq21U-sMt-28" edge="1">
          <mxGeometry relative="1" as="geometry">
            <Array as="points">
              <mxPoint x="1000" y="1780" />
              <mxPoint x="1000" y="1845" />
            </Array>
          </mxGeometry>
        </mxCell>
        <mxCell id="qi6nT5oTFo0Qq21U-sMt-39" style="edgeStyle=orthogonalEdgeStyle;rounded=0;orthogonalLoop=1;jettySize=auto;html=1;exitX=0;exitY=0.5;exitDx=0;exitDy=0;exitPerimeter=0;entryX=0.83;entryY=0.5;entryDx=0;entryDy=0;entryPerimeter=0;" parent="1" source="qi6nT5oTFo0Qq21U-sMt-20" target="qi6nT5oTFo0Qq21U-sMt-30" edge="1">
          <mxGeometry relative="1" as="geometry">
            <Array as="points">
              <mxPoint x="1040" y="1780" />
              <mxPoint x="1040" y="1925" />
            </Array>
          </mxGeometry>
        </mxCell>
        <mxCell id="qi6nT5oTFo0Qq21U-sMt-40" style="edgeStyle=orthogonalEdgeStyle;rounded=0;orthogonalLoop=1;jettySize=auto;html=1;exitX=0;exitY=0.5;exitDx=0;exitDy=0;exitPerimeter=0;entryX=0.63;entryY=0.5;entryDx=0;entryDy=0;entryPerimeter=0;" parent="1" source="qi6nT5oTFo0Qq21U-sMt-20" target="qi6nT5oTFo0Qq21U-sMt-13" edge="1">
          <mxGeometry relative="1" as="geometry">
            <Array as="points">
              <mxPoint x="1080" y="1780" />
              <mxPoint x="1080" y="2010" />
            </Array>
          </mxGeometry>
        </mxCell>
        <mxCell id="qi6nT5oTFo0Qq21U-sMt-41" style="edgeStyle=orthogonalEdgeStyle;rounded=0;orthogonalLoop=1;jettySize=auto;html=1;exitX=0;exitY=0.5;exitDx=0;exitDy=0;exitPerimeter=0;entryX=0.63;entryY=0.5;entryDx=0;entryDy=0;entryPerimeter=0;" parent="1" source="qi6nT5oTFo0Qq21U-sMt-20" target="qi6nT5oTFo0Qq21U-sMt-12" edge="1">
          <mxGeometry relative="1" as="geometry">
            <Array as="points">
              <mxPoint x="1120" y="1780" />
              <mxPoint x="1120" y="2110" />
            </Array>
          </mxGeometry>
        </mxCell>
        <mxCell id="qi6nT5oTFo0Qq21U-sMt-42" style="edgeStyle=orthogonalEdgeStyle;shape=link;rounded=0;orthogonalLoop=1;jettySize=auto;html=1;exitX=0.98;exitY=0.5;exitDx=0;exitDy=0;exitPerimeter=0;entryX=0;entryY=0.5;entryDx=0;entryDy=0;entryPerimeter=0;" parent="1" source="qi6nT5oTFo0Qq21U-sMt-20" target="qi6nT5oTFo0Qq21U-sMt-16" edge="1">
          <mxGeometry relative="1" as="geometry" />
        </mxCell>
        <mxCell id="qi6nT5oTFo0Qq21U-sMt-43" style="edgeStyle=orthogonalEdgeStyle;shape=link;rounded=0;orthogonalLoop=1;jettySize=auto;html=1;exitX=1;exitY=0.5;exitDx=0;exitDy=0;exitPerimeter=0;entryX=0;entryY=0.5;entryDx=0;entryDy=0;entryPerimeter=0;" parent="1" source="qi6nT5oTFo0Qq21U-sMt-16" target="qi6nT5oTFo0Qq21U-sMt-21" edge="1">
          <mxGeometry relative="1" as="geometry" />
        </mxCell>
        <mxCell id="qi6nT5oTFo0Qq21U-sMt-44" style="edgeStyle=orthogonalEdgeStyle;shape=link;rounded=0;orthogonalLoop=1;jettySize=auto;html=1;exitX=0.98;exitY=0.5;exitDx=0;exitDy=0;exitPerimeter=0;entryX=0;entryY=0.5;entryDx=0;entryDy=0;entryPerimeter=0;" parent="1" source="qi6nT5oTFo0Qq21U-sMt-21" target="qi6nT5oTFo0Qq21U-sMt-19" edge="1">
          <mxGeometry relative="1" as="geometry" />
        </mxCell>
        <mxCell id="qi6nT5oTFo0Qq21U-sMt-45" value="&amp;nbsp;" style="text;whiteSpace=wrap;html=1;" parent="1" vertex="1">
          <mxGeometry x="1370" y="2540" width="40" height="40" as="geometry" />
        </mxCell>
        <mxCell id="qi6nT5oTFo0Qq21U-sMt-46" style="edgeStyle=orthogonalEdgeStyle;rounded=0;orthogonalLoop=1;jettySize=auto;html=1;exitX=0.5;exitY=0;exitDx=0;exitDy=0;exitPerimeter=0;entryX=0.5;entryY=1;entryDx=0;entryDy=0;entryPerimeter=0;" parent="1" source="qi6nT5oTFo0Qq21U-sMt-19" target="qi6nT5oTFo0Qq21U-sMt-10" edge="1">
          <mxGeometry relative="1" as="geometry" />
        </mxCell>
        <mxCell id="qi6nT5oTFo0Qq21U-sMt-47" style="edgeStyle=orthogonalEdgeStyle;rounded=0;orthogonalLoop=1;jettySize=auto;html=1;exitX=0.5;exitY=0;exitDx=0;exitDy=0;exitPerimeter=0;entryX=0.5;entryY=1;entryDx=0;entryDy=0;entryPerimeter=0;" parent="1" source="qi6nT5oTFo0Qq21U-sMt-19" target="qi6nT5oTFo0Qq21U-sMt-9" edge="1">
          <mxGeometry relative="1" as="geometry" />
        </mxCell>
        <mxCell id="qi6nT5oTFo0Qq21U-sMt-48" style="edgeStyle=orthogonalEdgeStyle;rounded=0;orthogonalLoop=1;jettySize=auto;html=1;exitX=0.5;exitY=0;exitDx=0;exitDy=0;exitPerimeter=0;entryX=0.5;entryY=1;entryDx=0;entryDy=0;entryPerimeter=0;" parent="1" source="qi6nT5oTFo0Qq21U-sMt-19" target="qi6nT5oTFo0Qq21U-sMt-7" edge="1">
          <mxGeometry relative="1" as="geometry" />
        </mxCell>
        <mxCell id="qi6nT5oTFo0Qq21U-sMt-49" style="edgeStyle=orthogonalEdgeStyle;shape=link;rounded=0;orthogonalLoop=1;jettySize=auto;html=1;exitX=0.5;exitY=0.98;exitDx=0;exitDy=0;exitPerimeter=0;entryX=0.5;entryY=0;entryDx=0;entryDy=0;entryPerimeter=0;" parent="1" source="qi6nT5oTFo0Qq21U-sMt-19" target="qi6nT5oTFo0Qq21U-sMt-17" edge="1">
          <mxGeometry relative="1" as="geometry" />
        </mxCell>
        <mxCell id="qi6nT5oTFo0Qq21U-sMt-51" style="edgeStyle=orthogonalEdgeStyle;rounded=0;orthogonalLoop=1;jettySize=auto;html=1;exitX=0.5;exitY=0.98;exitDx=0;exitDy=0;exitPerimeter=0;entryX=0.5;entryY=0;entryDx=0;entryDy=0;entryPerimeter=0;" parent="1" source="qi6nT5oTFo0Qq21U-sMt-20" target="qi6nT5oTFo0Qq21U-sMt-8" edge="1">
          <mxGeometry relative="1" as="geometry" />
        </mxCell>
        <mxCell id="qi6nT5oTFo0Qq21U-sMt-52" value="&lt;font style=&quot;font-size: 48px;&quot;&gt;Société 9&lt;/font&gt;" style="text;html=1;align=center;verticalAlign=middle;resizable=0;points=[];autosize=1;strokeColor=none;fillColor=none;" parent="1" vertex="1">
          <mxGeometry x="740" y="1330" width="220" height="70" as="geometry" />
        </mxCell>
        <mxCell id="qi6nT5oTFo0Qq21U-sMt-53" value="&lt;div&gt;&lt;font style=&quot;font-size: 48px;&quot;&gt;Bureau&amp;nbsp;&lt;/font&gt;&lt;/div&gt;&lt;div&gt;&lt;font style=&quot;font-size: 48px;&quot;&gt;Mr Gombert&lt;/font&gt;&lt;/div&gt;" style="text;html=1;align=center;verticalAlign=middle;resizable=0;points=[];autosize=1;strokeColor=none;fillColor=none;" parent="1" vertex="1">
          <mxGeometry x="1910" y="1425" width="280" height="130" as="geometry" />
        </mxCell>
        <mxCell id="qi6nT5oTFo0Qq21U-sMt-54" value="&lt;div&gt;&lt;font style=&quot;font-size: 24px;&quot;&gt;Vlan 10&lt;/font&gt;&lt;/div&gt;&lt;div&gt;&lt;font style=&quot;font-size: 36px;&quot;&gt;&lt;font style=&quot;font-size: 24px;&quot;&gt;Centraux&lt;/font&gt;&lt;/font&gt;&lt;/div&gt;&lt;div&gt;&lt;font style=&quot;font-size: 12px;&quot;&gt;&lt;font&gt;192.168.144.0/24&lt;/font&gt;&lt;/font&gt;&lt;/div&gt;" style="text;html=1;align=center;verticalAlign=middle;resizable=0;points=[];autosize=1;strokeColor=none;fillColor=none;" parent="1" vertex="1">
          <mxGeometry x="640" y="1447.5" width="120" height="100" as="geometry" />
        </mxCell>
        <mxCell id="qi6nT5oTFo0Qq21U-sMt-55" value="&lt;div&gt;&lt;font style=&quot;font-size: 24px;&quot;&gt;Vlan 20&lt;/font&gt;&lt;/div&gt;&lt;div&gt;&lt;font style=&quot;font-size: 24px;&quot;&gt;Production&lt;/font&gt;&lt;/div&gt;&lt;div&gt;&lt;font style=&quot;font-size: 12px;&quot;&gt;&lt;font&gt;192.168.145.0/24&lt;/font&gt;&lt;/font&gt;&lt;/div&gt;" style="text;html=1;align=center;verticalAlign=middle;resizable=0;points=[];autosize=1;strokeColor=none;fillColor=none;" parent="1" vertex="1">
          <mxGeometry x="630" y="1637.5" width="140" height="90" as="geometry" />
        </mxCell>
        <mxCell id="qi6nT5oTFo0Qq21U-sMt-56" value="&lt;div&gt;&lt;font style=&quot;font-size: 24px;&quot;&gt;Vlan 30&lt;/font&gt;&lt;/div&gt;&lt;div&gt;&lt;font style=&quot;font-size: 24px;&quot;&gt;IT&lt;/font&gt;&lt;/div&gt;&lt;div&gt;&lt;font style=&quot;font-size: 12px;&quot;&gt;192.168.146.0/24&lt;/font&gt;&lt;/div&gt;" style="text;html=1;align=center;verticalAlign=middle;resizable=0;points=[];autosize=1;strokeColor=none;fillColor=none;" parent="1" vertex="1">
          <mxGeometry x="640" y="1940" width="120" height="90" as="geometry" />
        </mxCell>
        <mxCell id="qi6nT5oTFo0Qq21U-sMt-57" value="&lt;div&gt;&lt;font style=&quot;font-size: 15px;&quot;&gt;Docker&lt;/font&gt;&lt;/div&gt;&lt;div&gt;&lt;font style=&quot;font-size: 15px;&quot;&gt;192.168.148.20/24&lt;/font&gt;&lt;/div&gt;" style="text;html=1;align=center;verticalAlign=middle;resizable=0;points=[];autosize=1;strokeColor=none;fillColor=none;" parent="1" vertex="1">
          <mxGeometry x="1285" y="1970" width="150" height="50" as="geometry" />
        </mxCell>
        <mxCell id="qi6nT5oTFo0Qq21U-sMt-58" value="&lt;div&gt;&lt;font style=&quot;font-size: 15px;&quot;&gt;Windows&amp;nbsp;&lt;/font&gt;&lt;/div&gt;&lt;div&gt;&lt;font style=&quot;font-size: 15px;&quot;&gt;Serveur&lt;/font&gt;&lt;/div&gt;&lt;div&gt;&lt;font style=&quot;font-size: 15px;&quot;&gt;192.168.148.10/24&lt;/font&gt;&lt;/div&gt;" style="text;html=1;align=center;verticalAlign=middle;resizable=0;points=[];autosize=1;strokeColor=none;fillColor=none;" parent="1" vertex="1">
          <mxGeometry x="1115" y="1950" width="150" height="70" as="geometry" />
        </mxCell>
        <mxCell id="qi6nT5oTFo0Qq21U-sMt-60" value="&amp;nbsp;" style="text;whiteSpace=wrap;html=1;" parent="1" vertex="1">
          <mxGeometry x="650" y="1990" width="40" height="40" as="geometry" />
        </mxCell>
        <mxCell id="qi6nT5oTFo0Qq21U-sMt-61" value="&lt;div&gt;TELEPHONE OLIVIER&lt;/div&gt;&lt;div&gt;10000&lt;/div&gt;" style="text;html=1;align=center;verticalAlign=middle;resizable=0;points=[];autosize=1;strokeColor=none;fillColor=none;" parent="1" vertex="1">
          <mxGeometry x="2120" y="1763" width="150" height="40" as="geometry" />
        </mxCell>
        <mxCell id="qi6nT5oTFo0Qq21U-sMt-62" value="&lt;div&gt;Serveur Téléphonie&lt;/div&gt;10.0.0.3/12" style="text;html=1;align=center;verticalAlign=middle;resizable=0;points=[];autosize=1;strokeColor=none;fillColor=none;" parent="1" vertex="1">
          <mxGeometry x="2020" y="1607.5" width="140" height="40" as="geometry" />
        </mxCell>
        <mxCell id="qi6nT5oTFo0Qq21U-sMt-63" value="&lt;div&gt;Serveur WEB&lt;/div&gt;10.0.0.5/12" style="text;html=1;align=center;verticalAlign=middle;resizable=0;points=[];autosize=1;strokeColor=none;fillColor=none;" parent="1" vertex="1">
          <mxGeometry x="2217" y="1607.5" width="100" height="40" as="geometry" />
        </mxCell>
        <mxCell id="qi6nT5oTFo0Qq21U-sMt-64" value="&lt;div&gt;Serveur DNS&lt;/div&gt;10.0.0.7/12" style="text;html=1;align=center;verticalAlign=middle;resizable=0;points=[];autosize=1;strokeColor=none;fillColor=none;" parent="1" vertex="1">
          <mxGeometry x="1841" y="1607.5" width="90" height="40" as="geometry" />
        </mxCell>
        <mxCell id="qi6nT5oTFo0Qq21U-sMt-65" value="&amp;nbsp;" style="text;whiteSpace=wrap;html=1;" parent="1" vertex="1">
          <mxGeometry x="1160" y="920" width="40" height="40" as="geometry" />
        </mxCell>
        <mxCell id="qi6nT5oTFo0Qq21U-sMt-66" value="&amp;nbsp;" style="text;whiteSpace=wrap;html=1;" parent="1" vertex="1">
          <mxGeometry x="800" y="1790" width="40" height="40" as="geometry" />
        </mxCell>
        <mxCell id="qi6nT5oTFo0Qq21U-sMt-67" value="192.168.159.254/20" style="text;html=1;align=center;verticalAlign=middle;resizable=0;points=[];autosize=1;strokeColor=none;fillColor=none;" parent="1" vertex="1">
          <mxGeometry x="1342.5" y="1683" width="130" height="30" as="geometry" />
        </mxCell>
        <mxCell id="qi6nT5oTFo0Qq21U-sMt-68" style="edgeStyle=orthogonalEdgeStyle;rounded=0;orthogonalLoop=1;jettySize=auto;html=1;entryX=0.12;entryY=0.1;entryDx=0;entryDy=0;entryPerimeter=0;" parent="1" source="qi6nT5oTFo0Qq21U-sMt-67" target="qi6nT5oTFo0Qq21U-sMt-16" edge="1">
          <mxGeometry relative="1" as="geometry" />
        </mxCell>
        <mxCell id="qi6nT5oTFo0Qq21U-sMt-69" value="10.9.1.1/12" style="text;html=1;align=center;verticalAlign=middle;resizable=0;points=[];autosize=1;strokeColor=none;fillColor=none;" parent="1" vertex="1">
          <mxGeometry x="1440" y="1707" width="80" height="30" as="geometry" />
        </mxCell>
        <mxCell id="qi6nT5oTFo0Qq21U-sMt-70" style="edgeStyle=orthogonalEdgeStyle;rounded=0;orthogonalLoop=1;jettySize=auto;html=1;entryX=0.88;entryY=0.1;entryDx=0;entryDy=0;entryPerimeter=0;" parent="1" source="qi6nT5oTFo0Qq21U-sMt-69" target="qi6nT5oTFo0Qq21U-sMt-16" edge="1">
          <mxGeometry relative="1" as="geometry">
            <Array as="points">
              <mxPoint x="1480" y="1750" />
              <mxPoint x="1467" y="1750" />
            </Array>
          </mxGeometry>
        </mxCell>
        <mxCell id="qi6nT5oTFo0Qq21U-sMt-71" value="10.0.0.1/12" style="text;html=1;align=center;verticalAlign=middle;resizable=0;points=[];autosize=1;strokeColor=none;fillColor=none;" parent="1" vertex="1">
          <mxGeometry x="1945" y="1842" width="80" height="30" as="geometry" />
        </mxCell>
        <mxCell id="qi6nT5oTFo0Qq21U-sMt-72" value="192.168.144.0/20" style="text;whiteSpace=wrap;fontSize=24;" parent="1" vertex="1">
          <mxGeometry x="1060" y="1350" width="200" height="40" as="geometry" />
        </mxCell>
        <mxCell id="SOBUZzNXme51VfGTYFmo-1" style="edgeStyle=orthogonalEdgeStyle;rounded=0;orthogonalLoop=1;jettySize=auto;html=1;exitX=0.5;exitY=0.98;exitDx=0;exitDy=0;exitPerimeter=0;entryX=0.5;entryY=0;entryDx=0;entryDy=0;entryPerimeter=0;" edge="1" parent="1" source="qi6nT5oTFo0Qq21U-sMt-20" target="qi6nT5oTFo0Qq21U-sMt-11">
          <mxGeometry relative="1" as="geometry" />
        </mxCell>
        <mxCell id="SOBUZzNXme51VfGTYFmo-3" style="edgeStyle=orthogonalEdgeStyle;rounded=0;orthogonalLoop=1;jettySize=auto;html=1;exitX=1;exitY=0.5;exitDx=0;exitDy=0;exitPerimeter=0;entryX=0.5;entryY=0;entryDx=0;entryDy=0;entryPerimeter=0;" edge="1" parent="1" source="qi6nT5oTFo0Qq21U-sMt-25" target="qi6nT5oTFo0Qq21U-sMt-20">
          <mxGeometry relative="1" as="geometry" />
        </mxCell>
        <mxCell id="SOBUZzNXme51VfGTYFmo-5" style="edgeStyle=orthogonalEdgeStyle;rounded=0;orthogonalLoop=1;jettySize=auto;html=1;exitX=0.135;exitY=0.5;exitDx=0;exitDy=0;exitPerimeter=0;entryX=0.5;entryY=0;entryDx=0;entryDy=0;entryPerimeter=0;" edge="1" parent="1" source="qi6nT5oTFo0Qq21U-sMt-15" target="qi6nT5oTFo0Qq21U-sMt-20">
          <mxGeometry relative="1" as="geometry">
            <Array as="points">
              <mxPoint x="1279" y="1563" />
            </Array>
          </mxGeometry>
        </mxCell>
        <mxCell id="SOBUZzNXme51VfGTYFmo-7" value="&lt;font style=&quot;font-size: 24px;&quot;&gt;VLAN 40 Téléphonie&lt;/font&gt;" style="text;html=1;align=center;verticalAlign=middle;resizable=0;points=[];autosize=1;strokeColor=none;fillColor=none;" vertex="1" parent="1">
          <mxGeometry x="1160" y="1495" width="240" height="40" as="geometry" />
        </mxCell>
        <mxCell id="SOBUZzNXme51VfGTYFmo-8" value="&lt;font style=&quot;font-size: 24px;&quot;&gt;VLAN 50 Serveur&lt;/font&gt;" style="text;html=1;align=center;verticalAlign=middle;resizable=0;points=[];autosize=1;strokeColor=none;fillColor=none;" vertex="1" parent="1">
          <mxGeometry x="1180" y="2020" width="210" height="40" as="geometry" />
        </mxCell>
        <mxCell id="SOBUZzNXme51VfGTYFmo-10" style="edgeStyle=orthogonalEdgeStyle;rounded=0;orthogonalLoop=1;jettySize=auto;html=1;exitX=0;exitY=0.5;exitDx=0;exitDy=0;exitPerimeter=0;entryX=0.83;entryY=0.5;entryDx=0;entryDy=0;entryPerimeter=0;" edge="1" parent="1" source="qi6nT5oTFo0Qq21U-sMt-20" target="qi6nT5oTFo0Qq21U-sMt-24">
          <mxGeometry relative="1" as="geometry">
            <Array as="points">
              <mxPoint x="1080" y="1780" />
              <mxPoint x="1080" y="1680" />
            </Array>
          </mxGeometry>
        </mxCell>
        <mxCell id="SOBUZzNXme51VfGTYFmo-11" value="192.168.148.0/24" style="text;html=1;align=center;verticalAlign=middle;resizable=0;points=[];autosize=1;strokeColor=none;fillColor=none;" vertex="1" parent="1">
          <mxGeometry x="1225" y="2060" width="120" height="30" as="geometry" />
        </mxCell>
        <mxCell id="SOBUZzNXme51VfGTYFmo-12" value="192.168.147.0/24" style="text;html=1;align=center;verticalAlign=middle;resizable=0;points=[];autosize=1;strokeColor=none;fillColor=none;" vertex="1" parent="1">
          <mxGeometry x="1225" y="1465" width="120" height="30" as="geometry" />
        </mxCell>
      </root>
    </mxGraphModel>
  </diagram>
</mxfile>
